<svg width="92" height="34" viewBox="0 0 92 34" fill="none" xmlns="http://www.w3.org/2000/svg">
<path fill-rule="evenodd" clip-rule="evenodd" d="M67.4656 0C67.6533 0 67.806 0.148411 67.8107 0.333211L67.8108 0.341899V14.3594C68.9144 8.93673 73.4413 4.84705 79.552 4.84705C86.502 4.84705 91.4089 10.1915 91.5361 16.7651L91.5385 16.9646V28.1143C91.5385 28.3002 91.3886 28.4515 91.202 28.4561L91.1932 28.4562H86.2226C86.0348 28.4562 85.8821 28.3078 85.8774 28.123L85.8773 28.1143V26.0428C84.1095 27.9614 81.5753 28.951 78.7652 28.951C73.1858 28.951 68.5363 24.5483 67.7086 18.8025C66.8911 24.5887 62.2416 28.9914 55.8857 28.9914C48.8246 28.9914 43.889 23.6193 43.889 16.9546C43.889 16.4417 43.9172 15.938 43.9735 15.4437L43.981 15.3793L39.9957 16.7425L27.1918 21.0746C27.1918 21.0846 27.202 21.0948 27.2122 21.1048C28.2749 22.7205 29.9712 23.7202 31.9843 23.8616C33.9064 23.9916 35.9287 23.3001 37.0596 21.5716L37.0936 21.5189L43.4598 21.9531C41.784 26.5477 37.4513 29.4458 31.6675 29.052C27.4575 28.7692 23.9218 26.3356 22.0314 22.8821C21.5083 21.9179 21.1139 20.8852 20.8581 19.7936L20.846 19.7416V23.6596C20.846 29.88 16.7177 34 10.4741 34C5.40576 34 1.22879 30.7538 0.35254 26.0837L0.327 25.9418H6.5297C6.88737 27.6483 8.43036 28.4966 10.4639 28.4966C13.691 28.4966 14.835 26.2598 14.8576 24.1281L14.8579 24.0636V21.3775C13.4477 22.5388 11.639 23.2557 9.51355 23.2557C3.85845 23.2557 0.0762176 19.2672 0.00113851 13.3282L0 13.1476V5.39093C0 5.20499 0.149861 5.05374 0.336467 5.04913L0.34524 5.04903H5.63265C5.8204 5.04903 5.97313 5.19741 5.97778 5.38223L5.97789 5.39093V13.1476C5.97789 14.4503 6.42751 17.6715 10.3208 17.6715C12.9612 17.6715 14.8104 15.7812 14.8471 13.2253L14.8477 13.1476V5.39093C14.8477 5.20499 14.9975 5.05374 15.1841 5.04913L15.1929 5.04903H20.4803C20.6681 5.04903 20.8208 5.19741 20.8255 5.38223L20.8256 5.39093V14.3998C22.1029 8.67418 27.3553 4.5441 33.3229 4.94802C38.7899 5.32166 43.1635 8.95693 44.0218 14.935C44.9211 9.28009 49.5195 4.93794 54.9966 4.93794C57.7281 4.93794 59.9788 5.76928 61.7785 7.56917L61.8329 7.62401V0.341899C61.8329 0.15599 61.9827 0.00471878 62.1694 0.000108272L62.1782 0H67.4656ZM55.855 10.3811C52.5442 10.3811 49.8771 13.1985 49.8771 17.0054C49.8771 20.6811 52.5544 23.4984 55.855 23.4984C59.1659 23.4984 61.8329 20.5902 61.8329 17.0054C61.8329 13.3298 59.1557 10.3811 55.855 10.3811ZM79.552 10.3811C76.2411 10.3811 73.5741 13.1985 73.5741 17.0054C73.5741 20.6811 76.2514 23.4984 79.552 23.4984C82.8526 23.4984 85.5299 20.5902 85.5299 17.0054C85.5299 13.3298 82.8526 10.3811 79.552 10.3811ZM26.1421 16.1811L26.129 16.2982L37.3797 12.4812C36.3885 11.118 34.8148 10.2495 32.9142 10.1182C29.5151 9.88833 26.5967 12.3306 26.1421 16.1811Z" fill="currentColor"/>
</svg>
