<svg width="426" height="187" viewBox="0 0 426 187" fill="none" xmlns="http://www.w3.org/2000/svg">
<g clip-path="url(#clip0_40000008_418)">
<g clip-path="url(#clip1_40000008_418)">
<path fill-rule="evenodd" clip-rule="evenodd" d="M111.602 28.3019L94.0537 51.8454L333.848 51.8841C333.848 51.8841 322.495 25.7709 311.522 24.6191C274.811 20.7657 124.934 22.8907 111.602 28.3019Z" fill="#94BFFF"/>
<mask id="mask0_40000008_418" style="mask-type:luminance" maskUnits="userSpaceOnUse" x="94" y="22" width="240" height="30">
<path fill-rule="evenodd" clip-rule="evenodd" d="M111.602 28.3023L94.0536 51.8458L333.848 51.8845C333.848 51.8845 322.495 25.7712 311.522 24.6195C274.811 20.7661 124.934 22.8911 111.602 28.3023Z" fill="white"/>
</mask>
<g mask="url(#mask0_40000008_418)">
<path d="M120.521 26.8931C117.823 32.4515 106.366 47.9475 106.366 52.7573" stroke="white" stroke-width="0.301176"/>
<path d="M132.106 24.8398C133.739 22.8431 129.483 34.2552 128.995 35.4777C127.286 39.7574 122.475 49.5929 122.475 53.9151" stroke="white" stroke-width="0.301176"/>
<path d="M143.35 22.5232C143.615 21.5835 142.994 27.2159 142.994 27.2164C142.595 30.0147 142.001 32.8655 141.652 35.6668C140.861 42.0016 137.816 48.7207 137.816 55.0643" stroke="white" stroke-width="0.301176"/>
<path d="M274.846 24.453C274.949 24.3188 275.142 25.8501 275.32 26.4476C276.055 28.9018 276.647 31.4285 277.238 33.9378C278.639 39.9046 279.153 47.5681 281.84 52.9512" stroke="white" stroke-width="0.301176"/>
<path d="M287.594 24.1743C287.116 24.0999 288.218 26.0498 288.554 26.8331C289.925 30.0382 291.135 33.2764 292.581 36.436C295.409 42.6178 297.777 52.1026 303.512 56.4096" stroke="white" stroke-width="0.301176"/>
<path d="M299.586 23.1261C298.716 23.6276 300.107 25.1469 300.443 25.8737C305.156 36.0979 309.607 47.2105 316.169 56.4103" stroke="white" stroke-width="0.301176"/>
<path d="M307.371 21.7562C312.422 28.0162 325.545 46.8206 329.447 51.5108" stroke="white" stroke-width="0.301176"/>
</g>
<path fill-rule="evenodd" clip-rule="evenodd" d="M104.278 52.3997L104.465 173.039L323.168 173.778L323.388 51.2968L104.278 52.3997Z" fill="#0A59EB" stroke="#94BFFF" stroke-opacity="0.01" stroke-width="0.301176"/>
<rect width="15.7785" height="27.1915" transform="matrix(-1 0 0 1 289.927 72.8734)" fill="#003CA3"/>
<rect x="112.31" y="72.7723" width="15.7785" height="27.1915" fill="#003CA3"/>
<rect x="137.443" y="72.8052" width="15.7785" height="27.1915" fill="#003CA3"/>
<path fill-rule="evenodd" clip-rule="evenodd" d="M315.185 99.9737L299.454 99.965V72.7736L315.486 72.7451" fill="#003CA3"/>
<rect x="112.31" y="119.453" width="15.7785" height="27.1915" fill="#003CA3"/>
<rect width="15.7785" height="27.1915" transform="matrix(-1 0 0 1 315.233 119.453)" fill="#003CA3"/>
<rect x="137.605" y="119.453" width="15.7785" height="27.1915" fill="#003CA3"/>
<rect width="15.7785" height="27.1915" transform="matrix(-1 0 0 1 289.942 119.453)" fill="#003CA3"/>
<path d="M101.35 55.658L157.68 56.0256" stroke="white" stroke-width="0.301176"/>
<path d="M326.194 55.6581L269.929 56.0257" stroke="white" stroke-width="0.301176"/>
<path d="M326.194 111.587L269.645 111.805" stroke="white" stroke-width="0.301176"/>
<path d="M325.541 108.117L269.442 108.338" stroke="white" stroke-width="0.301176"/>
<path d="M101.35 111.597L158.686 111.747" stroke="white" stroke-width="0.301176"/>
<path d="M101.181 108.357L158.572 108.724" stroke="white" stroke-width="0.301176"/>
<path d="M119.802 72.4457L120.169 99.024" stroke="#0A59EB" stroke-width="0.301176"/>
<path d="M145.331 72.0214L145.698 98.5997" stroke="#0A59EB" stroke-width="0.301176"/>
<path d="M281.969 73.036L282.16 99.504" stroke="#0A59EB" stroke-width="0.301176"/>
<path d="M145.409 118.877L145.776 145.456" stroke="#0A59EB" stroke-width="0.301176"/>
<path d="M282.319 119.358L281.954 145.715" stroke="#0A59EB" stroke-width="0.301176"/>
<path d="M120.511 116.367L120.288 146.046" stroke="#0A59EB" stroke-width="0.301176"/>
<path d="M307.894 119.657L307.532 145.645" stroke="#0A59EB" stroke-width="0.301176"/>
<path d="M307.632 72.7806L307.716 99.5608" stroke="#0A59EB" stroke-width="0.301176"/>
<path d="M110.354 99.9314L130.156 100.299" stroke="#414242" stroke-width="0.301176"/>
<path d="M135.401 99.7832L155.203 100.151" stroke="#414242" stroke-width="0.301176"/>
<path d="M291.532 100.125L271.729 100.492" stroke="#414242" stroke-width="0.301176"/>
<path d="M135.528 146.735L155.33 147.103" stroke="#414242" stroke-width="0.301176"/>
<path d="M291.99 146.578L272.187 146.945" stroke="#414242" stroke-width="0.301176"/>
<path d="M110.673 146.782L130.272 147.15" stroke="#414242" stroke-width="0.301176"/>
<path d="M316.828 146.64L297.026 147.008" stroke="#414242" stroke-width="0.301176"/>
<path d="M317.105 99.9814L297.342 100.349" stroke="#414242" stroke-width="0.301176"/>
<path fill-rule="evenodd" clip-rule="evenodd" d="M134.22 177.012C134.921 175.77 135.825 170.599 134.988 165.449C134.018 159.49 130.717 153.561 122.071 153.782C118.297 153.878 111.098 156.466 109.714 163.163C108.129 170.839 108.673 176.645 112.949 177.032" fill="#BFD9FF"/>
<path fill-rule="evenodd" clip-rule="evenodd" d="M293.85 177.012C293.149 175.77 292.245 170.599 293.082 165.449C294.052 159.49 297.353 153.561 305.999 153.782C309.773 153.877 316.972 156.466 318.356 163.163C319.941 170.839 319.397 176.645 315.121 177.032" fill="#BFD9FF"/>
<path fill-rule="evenodd" clip-rule="evenodd" d="M139.572 178.419C139.572 178.419 137.772 172.796 138.874 164.061C139.623 158.128 143.818 153.555 146.865 153.912C149.28 154.195 153.662 156.579 154.549 164.233C155.565 173.004 153.007 178.576 153.007 178.576C149.699 178.181 145.9 177.931 139.572 178.419Z" fill="#BFD9FF"/>
<path fill-rule="evenodd" clip-rule="evenodd" d="M288.5 178.418C288.5 178.418 290.3 172.795 289.197 164.061C288.448 158.128 284.254 153.554 281.206 153.912C278.792 154.195 274.409 156.579 273.522 164.233C272.506 173.004 275.064 178.575 275.064 178.575C278.372 178.181 282.171 177.931 288.5 178.418Z" fill="#BFD9FF"/>
<path fill-rule="evenodd" clip-rule="evenodd" d="M151.41 187.534C151.41 187.534 149.647 183.721 150.728 177.798C151.461 173.775 155.57 170.674 158.555 170.916C160.92 171.108 164.861 172.884 165.73 178.074C166.725 184.023 164.571 187.64 164.571 187.64C161.331 187.373 157.609 187.203 151.41 187.534Z" fill="#BFD9FF" stroke="#E8F9FF" stroke-width="0.301176"/>
<path fill-rule="evenodd" clip-rule="evenodd" d="M276.66 187.534C276.66 187.534 278.424 183.721 277.343 177.798C276.61 173.775 272.501 170.674 269.516 170.916C267.151 171.108 263.21 172.884 262.34 178.074C261.346 184.023 263.5 187.64 263.5 187.64C266.74 187.373 270.461 187.203 276.66 187.534Z" fill="#BFD9FF" stroke="#E8F9FF" stroke-width="0.301176"/>
<path fill-rule="evenodd" clip-rule="evenodd" d="M91.9577 172.048C89.9085 168.782 90.6056 153.786 90.9562 149.039C91.4695 142.097 94.8236 127.88 97.5687 128.07C99.7417 128.221 100.827 139.774 101.615 148.639C102.426 157.767 101.331 172.851 101.331 172.851C101.331 172.851 94.0068 175.314 91.9577 172.048Z" fill="#BFD9FF"/>
<path fill-rule="evenodd" clip-rule="evenodd" d="M336.118 172.048C338.167 168.782 337.47 153.786 337.12 149.039C336.606 142.097 333.252 127.88 330.507 128.07C328.334 128.221 327.249 139.774 326.461 148.639C325.65 157.767 326.745 172.851 326.745 172.851C326.745 172.851 334.069 175.314 336.118 172.048Z" fill="#BFD9FF"/>
<path fill-rule="evenodd" clip-rule="evenodd" d="M258.013 20.9279C258.013 19.1717 257.342 17.4873 256.148 16.2438C254.954 15.0028 253.335 14.3043 251.648 14.3043H176.428C174.74 14.3043 173.121 15.0028 171.928 16.2438C170.734 17.4873 170.063 19.1717 170.063 20.9279V181.655H258.013V20.9279Z" fill="#003CA3"/>
<path fill-rule="evenodd" clip-rule="evenodd" d="M255.901 22.8621C255.901 21.1227 255.261 19.4544 254.124 18.2228C252.987 16.9936 251.444 16.3018 249.837 16.3018H178.17C176.563 16.3018 175.02 16.9936 173.883 18.2228C172.745 19.4544 172.106 21.1227 172.106 22.8621V182.055H255.901V22.8621Z" fill="#E8EAF5"/>
<path fill-rule="evenodd" clip-rule="evenodd" d="M190.933 68.8267C190.933 68.0988 190.643 67.4006 190.13 66.8859C189.615 66.3711 188.919 66.0819 188.192 66.0819C186.539 66.0819 184.442 66.0819 182.79 66.0819C182.063 66.0819 181.366 66.3711 180.852 66.8859C180.338 67.4006 180.049 68.0988 180.049 68.8267C180.049 70.6429 180.049 73.0152 180.049 74.8313C180.049 75.5593 180.338 76.2574 180.852 76.7722C181.366 77.2869 182.063 77.5761 182.79 77.5761C184.442 77.5761 186.539 77.5761 188.192 77.5761C188.919 77.5761 189.615 77.2869 190.13 76.7722C190.643 76.2574 190.933 75.5593 190.933 74.8313C190.933 73.0152 190.933 70.6429 190.933 68.8267Z" fill="#76A4F9"/>
<path fill-rule="evenodd" clip-rule="evenodd" d="M237.29 87.917C237.29 87.1891 237.58 86.4909 238.093 85.9762C238.608 85.4614 239.304 85.1722 240.031 85.1722C241.684 85.1722 243.781 85.1722 245.433 85.1722C246.16 85.1722 246.857 85.4614 247.371 85.9762C247.885 86.4909 248.174 87.1891 248.174 87.917C248.174 89.7332 248.174 92.1055 248.174 93.9216C248.174 94.6496 247.885 95.3478 247.371 95.8625C246.857 96.3772 246.16 96.6664 245.433 96.6664C243.781 96.6664 241.684 96.6664 240.031 96.6664C239.304 96.6664 238.608 96.3772 238.093 95.8625C237.58 95.3478 237.29 94.6496 237.29 93.9216C237.29 92.1055 237.29 89.7332 237.29 87.917Z" fill="#76A4F9"/>
<path fill-rule="evenodd" clip-rule="evenodd" d="M237.29 50.0889C237.29 49.361 237.58 48.6628 238.093 48.1481C238.608 47.6333 239.304 47.3441 240.031 47.3441C241.684 47.3441 243.781 47.3441 245.433 47.3441C246.16 47.3441 246.857 47.6333 247.371 48.1481C247.885 48.6628 248.174 49.361 248.174 50.0889C248.174 51.9051 248.174 54.2774 248.174 56.0935C248.174 56.8215 247.885 57.5196 247.371 58.0344C246.857 58.5491 246.16 58.8383 245.433 58.8383C243.781 58.8383 241.684 58.8383 240.031 58.8383C239.304 58.8383 238.608 58.5491 238.093 58.0344C237.58 57.5196 237.29 56.8215 237.29 56.0935C237.29 54.2774 237.29 51.9051 237.29 50.0889Z" fill="#76A4F9"/>
<path fill-rule="evenodd" clip-rule="evenodd" d="M237.29 107.127C237.29 106.399 237.58 105.7 238.093 105.186C238.608 104.671 239.304 104.382 240.031 104.382C241.684 104.382 243.781 104.382 245.433 104.382C246.16 104.382 246.857 104.671 247.371 105.186C247.885 105.7 248.174 106.399 248.174 107.127C248.174 108.943 248.174 111.315 248.174 113.131C248.174 113.859 247.885 114.557 247.371 115.072C246.857 115.587 246.16 115.876 245.433 115.876C243.781 115.876 241.684 115.876 240.031 115.876C239.304 115.876 238.608 115.587 238.093 115.072C237.58 114.557 237.29 113.859 237.29 113.131C237.29 111.315 237.29 108.943 237.29 107.127Z" fill="#76A4F9"/>
<path fill-rule="evenodd" clip-rule="evenodd" d="M210.012 68.8267C210.012 68.0988 209.722 67.4006 209.209 66.8859C208.694 66.3711 207.997 66.0819 207.271 66.0819C205.618 66.0819 203.521 66.0819 201.869 66.0819C201.142 66.0819 200.444 66.3711 199.931 66.8859C199.417 67.4006 199.128 68.0988 199.128 68.8267C199.128 70.6429 199.128 73.0152 199.128 74.8313C199.128 75.5593 199.417 76.2574 199.931 76.7722C200.444 77.2869 201.142 77.5761 201.869 77.5761C203.521 77.5761 205.618 77.5761 207.271 77.5761C207.997 77.5761 208.694 77.2869 209.209 76.7722C209.722 76.2574 210.012 75.5593 210.012 74.8313C210.012 73.0152 210.012 70.6429 210.012 68.8267Z" fill="#76A4F9"/>
<path fill-rule="evenodd" clip-rule="evenodd" d="M218.209 87.917C218.209 87.1891 218.499 86.4909 219.012 85.9762C219.527 85.4614 220.223 85.1722 220.95 85.1722C222.603 85.1722 224.7 85.1722 226.352 85.1722C227.079 85.1722 227.776 85.4614 228.29 85.9762C228.804 86.4909 229.093 87.1891 229.093 87.917C229.093 89.7332 229.093 92.1055 229.093 93.9216C229.093 94.6496 228.804 95.3478 228.29 95.8625C227.776 96.3772 227.079 96.6664 226.352 96.6664C224.7 96.6664 222.603 96.6664 220.95 96.6664C220.223 96.6664 219.527 96.3772 219.012 95.8625C218.499 95.3478 218.209 94.6496 218.209 93.9216C218.209 92.1055 218.209 89.7332 218.209 87.917Z" fill="#76A4F9"/>
<path fill-rule="evenodd" clip-rule="evenodd" d="M218.209 50.0888C218.209 49.3609 218.499 48.6627 219.012 48.1479C219.527 47.6332 220.223 47.344 220.95 47.344C222.603 47.344 224.7 47.344 226.352 47.344C227.079 47.344 227.776 47.6332 228.29 48.1479C228.804 48.6627 229.093 49.3609 229.093 50.0888C229.093 51.905 229.093 54.2772 229.093 56.0934C229.093 56.8214 228.804 57.5195 228.29 58.0343C227.776 58.549 227.079 58.8381 226.352 58.8381C224.7 58.8381 222.603 58.8381 220.95 58.8381C220.223 58.8381 219.527 58.549 219.012 58.0343C218.499 57.5195 218.209 56.8214 218.209 56.0934C218.209 54.2772 218.209 51.905 218.209 50.0888Z" fill="#76A4F9"/>
<path fill-rule="evenodd" clip-rule="evenodd" d="M229.095 68.8267C229.095 68.0988 228.805 67.4006 228.292 66.8859C227.777 66.3711 227.081 66.0819 226.354 66.0819C224.701 66.0819 222.604 66.0819 220.952 66.0819C220.225 66.0819 219.528 66.3711 219.014 66.8859C218.5 67.4006 218.211 68.0988 218.211 68.8267C218.211 70.6429 218.211 73.0152 218.211 74.8313C218.211 75.5593 218.5 76.2574 219.014 76.7722C219.528 77.2869 220.225 77.5761 220.952 77.5761C222.604 77.5761 224.701 77.5761 226.354 77.5761C227.081 77.5761 227.777 77.2869 228.292 76.7722C228.805 76.2574 229.095 75.5593 229.095 74.8313C229.095 73.0152 229.095 70.6429 229.095 68.8267Z" fill="#76A4F9"/>
<path fill-rule="evenodd" clip-rule="evenodd" d="M199.132 87.917C199.132 87.1891 199.422 86.4909 199.935 85.9762C200.45 85.4614 201.146 85.1722 201.873 85.1722C203.526 85.1722 205.623 85.1722 207.275 85.1722C208.001 85.1722 208.699 85.4614 209.212 85.9762C209.727 86.4909 210.016 87.1891 210.016 87.917C210.016 89.7332 210.016 92.1055 210.016 93.9216C210.016 94.6496 209.727 95.3478 209.212 95.8625C208.699 96.3772 208.001 96.6664 207.275 96.6664C205.623 96.6664 203.526 96.6664 201.873 96.6664C201.146 96.6664 200.45 96.3772 199.935 95.8625C199.422 95.3478 199.132 94.6496 199.132 93.9216C199.132 92.1055 199.132 89.7332 199.132 87.917Z" fill="#76A4F9"/>
<path fill-rule="evenodd" clip-rule="evenodd" d="M199.132 50.0889C199.132 49.361 199.422 48.6628 199.935 48.1481C200.45 47.6333 201.146 47.3441 201.873 47.3441C203.526 47.3441 205.623 47.3441 207.275 47.3441C208.001 47.3441 208.699 47.6333 209.212 48.1481C209.727 48.6628 210.016 49.361 210.016 50.0889C210.016 51.9051 210.016 54.2774 210.016 56.0935C210.016 56.8215 209.727 57.5196 209.212 58.0344C208.699 58.5491 208.001 58.8383 207.275 58.8383C205.623 58.8383 203.526 58.8383 201.873 58.8383C201.146 58.8383 200.45 58.5491 199.935 58.0344C199.422 57.5196 199.132 56.8215 199.132 56.0935C199.132 54.2774 199.132 51.9051 199.132 50.0889Z" fill="#76A4F9"/>
<path fill-rule="evenodd" clip-rule="evenodd" d="M248.176 68.8267C248.176 68.0988 247.886 67.4006 247.373 66.8859C246.858 66.3711 246.162 66.0819 245.435 66.0819C243.782 66.0819 241.685 66.0819 240.033 66.0819C239.306 66.0819 238.609 66.3711 238.095 66.8859C237.581 67.4006 237.292 68.0988 237.292 68.8267C237.292 70.6429 237.292 73.0152 237.292 74.8313C237.292 75.5593 237.581 76.2574 238.095 76.7722C238.609 77.2869 239.306 77.5761 240.033 77.5761C241.685 77.5761 243.782 77.5761 245.435 77.5761C246.162 77.5761 246.858 77.2869 247.373 76.7722C247.886 76.2574 248.176 75.5593 248.176 74.8313C248.176 73.0152 248.176 70.6429 248.176 68.8267Z" fill="#76A4F9"/>
<path fill-rule="evenodd" clip-rule="evenodd" d="M180.049 87.917C180.049 87.1891 180.339 86.4909 180.852 85.9762C181.367 85.4614 182.063 85.1722 182.79 85.1722C184.443 85.1722 186.54 85.1722 188.192 85.1722C188.918 85.1722 189.616 85.4614 190.129 85.9762C190.644 86.4909 190.933 87.1891 190.933 87.917C190.933 89.7332 190.933 92.1055 190.933 93.9216C190.933 94.6496 190.644 95.3478 190.129 95.8625C189.616 96.3772 188.918 96.6664 188.192 96.6664C186.54 96.6664 184.443 96.6664 182.79 96.6664C182.063 96.6664 181.367 96.3772 180.852 95.8625C180.339 95.3478 180.049 94.6496 180.049 93.9216C180.049 92.1055 180.049 89.7332 180.049 87.917Z" fill="#76A4F9"/>
<path fill-rule="evenodd" clip-rule="evenodd" d="M180.049 50.0889C180.049 49.361 180.339 48.6628 180.852 48.1481C181.367 47.6333 182.063 47.3441 182.79 47.3441C184.443 47.3441 186.54 47.3441 188.192 47.3441C188.918 47.3441 189.616 47.6333 190.129 48.1481C190.644 48.6628 190.933 49.361 190.933 50.0889C190.933 51.9051 190.933 54.2774 190.933 56.0935C190.933 56.8215 190.644 57.5196 190.129 58.0344C189.616 58.5491 188.918 58.8383 188.192 58.8383C186.54 58.8383 184.443 58.8383 182.79 58.8383C182.063 58.8383 181.367 58.5491 180.852 58.0344C180.339 57.5196 180.049 56.8215 180.049 56.0935C180.049 54.2774 180.049 51.9051 180.049 50.0889Z" fill="#76A4F9"/>
<path fill-rule="evenodd" clip-rule="evenodd" d="M180.054 107.495C180.054 106.767 180.344 106.069 180.857 105.554C181.371 105.039 182.068 104.75 182.795 104.75C184.448 104.75 186.545 104.75 188.197 104.75C188.923 104.75 189.621 105.039 190.134 105.554C190.649 106.069 190.938 106.767 190.938 107.495C190.938 109.311 190.938 111.683 190.938 113.499C190.938 114.227 190.649 114.925 190.134 115.44C189.621 115.955 188.923 116.244 188.197 116.244C186.545 116.244 184.448 116.244 182.795 116.244C182.068 116.244 181.371 115.955 180.857 115.44C180.344 114.925 180.054 114.227 180.054 113.499C180.054 111.683 180.054 109.311 180.054 107.495Z" fill="#76A4F9"/>
<path fill-rule="evenodd" clip-rule="evenodd" d="M184.652 177.566C184.652 177.566 181.838 133.612 212.862 132.937C246.358 132.204 242.108 177.798 242.108 177.798" fill="white"/>
<path fill-rule="evenodd" clip-rule="evenodd" d="M205.739 173.794C205.739 173.794 205.211 154.644 206.262 153.181C206.816 152.403 220.599 153.244 220.599 153.244L220.794 173.681L205.739 173.794Z" fill="#94BFFF"/>
<rect x="198.326" y="173.618" width="30.0877" height="4.43029" fill="#94BFFF" stroke="#414242" stroke-width="0.236519"/>
<rect x="183.612" y="177.812" width="59.5037" height="4.4684" fill="#94BFFF" stroke="#414242" stroke-width="0.236519"/>
<rect x="172.18" y="182.057" width="83.7159" height="4.08046" fill="#94BFFF" stroke="#414242" stroke-width="0.236519"/>
<path fill-rule="evenodd" clip-rule="evenodd" d="M215.151 21.6652C215.574 21.4687 216.074 21.4438 216.539 21.6403C217.196 21.9197 217.366 22.2961 217.435 22.4206C217.773 23.0156 217.71 23.5441 217.509 23.9924C217.366 24.3106 217.103 24.6787 216.575 24.8918C216.448 24.9416 215.744 25.008 215.7 25.0135H215.755C215.739 25.0135 215.7 25.0135 215.7 25.0135V25.0135C214.777 24.9858 214.037 24.2221 214.037 23.284C214.037 22.5451 214.499 21.9114 215.151 21.6652Z" fill="#414242"/>
<path fill-rule="evenodd" clip-rule="evenodd" d="M250.735 21.5306L237.663 21.5272L237.757 25.3551L250.735 25.3679V21.5306Z" fill="#414242"/>
<ellipse cx="232.901" cy="23.4089" rx="2.15126" ry="2.15446" stroke="#414242" stroke-width="0.236519"/>
</g>
</g>
<defs>
<clipPath id="clip0_40000008_418">
<rect width="426" height="187" fill="white"/>
</clipPath>
<clipPath id="clip1_40000008_418">
<rect width="438.443" height="244.199" fill="white" transform="translate(-6.22168 -52.3069)"/>
</clipPath>
</defs>
</svg>
